<svg width="16" height="24" viewBox="0 0 16 24" fill="none" xmlns="http://www.w3.org/2000/svg">
<path fill-rule="evenodd" clip-rule="evenodd" d="M8 15C12.1421 15 15.5 11.6421 15.5 7.5C15.5 3.35786 12.1421 0 8 0C3.85786 0 0.5 3.35786 0.5 7.5C0.5 11.6421 3.85786 15 8 15ZM14 7.5C14 10.8137 11.3137 13.5 8 13.5C4.68629 13.5 2 10.8137 2 7.5C2 4.18629 4.68629 1.5 8 1.5C11.3137 1.5 14 4.18629 14 7.5ZM7 23.5V20L5.5 18.5H4V17H12.5V18.5H11L9.5 20V23.5H7ZM9 8.5C9 9.05229 8.55229 9.5 8 9.5C7.44772 9.5 7 9.05229 7 8.5C7 7.94772 7.44772 7.5 8 7.5C8.55229 7.5 9 7.94772 9 8.5ZM5 10.5C5.55228 10.5 6 10.0523 6 9.5C6 8.94771 5.55228 8.5 5 8.5C4.44772 8.5 4 8.94771 4 9.5C4 10.0523 4.44772 10.5 5 10.5ZM9 11.5C9 12.0523 8.55229 12.5 8 12.5C7.44772 12.5 7 12.0523 7 11.5C7 10.9477 7.44772 10.5 8 10.5C8.55229 10.5 9 10.9477 9 11.5ZM11 10.5C11.5523 10.5 12 10.0523 12 9.5C12 8.94771 11.5523 8.5 11 8.5C10.4477 8.5 10 8.94771 10 9.5C10 10.0523 10.4477 10.5 11 10.5Z" fill="#717171"/>
</svg>
