<svg width="25" height="28" viewBox="0 0 25 28" fill="none" xmlns="http://www.w3.org/2000/svg">
<path fill-rule="evenodd" clip-rule="evenodd" d="M3.75 2C2.7835 2 2 2.7835 2 3.75V24.25C2 25.2165 2.7835 26 3.75 26H6.75C7.7165 26 8.5 25.2165 8.5 24.25V24H23.75H25.75V22.5H24.5V5H25.75V3.5H23.75H9.98228C9.86097 2.65193 9.13162 2 8.25 2H3.75ZM23 19.9041V22.5H8.5V20.625L9.06798 20.199C9.49196 19.881 10.0704 19.865 10.5114 20.159L11.3055 20.6884C12.1722 21.2662 13.2909 21.3047 14.1953 20.7879L15.5489 20.0144C15.96 19.7795 16.4685 19.7971 16.8624 20.0597L17.9181 20.7635C18.7022 21.2862 19.6993 21.371 20.5604 20.9883L23 19.9041ZM23 16.4041V18.2626L19.9512 19.6176C19.5598 19.7916 19.1066 19.753 18.7502 19.5154L17.6945 18.8116C16.8278 18.2338 15.7091 18.1953 14.8047 18.7121L13.4511 19.4856C13.04 19.7205 12.5315 19.7029 12.1376 19.4403L11.3434 18.9109C10.4821 18.3367 9.38241 18.3001 8.49377 18.7887C8.46996 18.3239 8.37805 17.8671 8.2226 17.4324L9.07655 16.7492C9.50161 16.4092 10.0979 16.3833 10.5508 16.6853L11.3055 17.1884C12.1722 17.7662 13.2909 17.8047 14.1953 17.2879L15.5489 16.5144C15.96 16.2795 16.4685 16.2971 16.8624 16.5597L17.9181 17.2635C18.7022 17.7862 19.6993 17.871 20.5604 17.4883L23 16.4041ZM23 5V14.7626L19.9512 16.1176C19.5598 16.2916 19.1066 16.253 18.7502 16.0154L17.6945 15.3116C16.8278 14.7338 15.7091 14.6953 14.8047 15.2121L13.4511 15.9856C13.04 16.2205 12.5315 16.2029 12.1376 15.9403L11.3828 15.4372C10.3864 14.7729 9.07465 14.8298 8.13951 15.5779L7.49085 16.0968L6.20812 14.301L8.80019 11.3849C9.57308 10.5154 10 9.39254 10 8.2292V5H23ZM7.67908 10.3884L4.9132 13.5H3.5V3.75C3.5 3.61193 3.61193 3.5 3.75 3.5H8.25C8.38807 3.5 8.5 3.61193 8.5 3.75V8.2292C8.5 9.02517 8.20789 9.79347 7.67908 10.3884ZM3.5 24.25V15H4.86404L6.39463 17.1428C6.78835 17.694 7 18.3545 7 19.0319V24.25C7 24.3881 6.88807 24.5 6.75 24.5H3.75C3.61193 24.5 3.5 24.3881 3.5 24.25ZM18.25 12.25C19.6307 12.25 20.75 11.1307 20.75 9.75C20.75 8.36929 19.6307 7.25 18.25 7.25C16.8693 7.25 15.75 8.36929 15.75 9.75C15.75 11.1307 16.8693 12.25 18.25 12.25ZM19.25 9.75C19.25 10.3023 18.8023 10.75 18.25 10.75C17.6977 10.75 17.25 10.3023 17.25 9.75C17.25 9.19772 17.6977 8.75 18.25 8.75C18.8023 8.75 19.25 9.19772 19.25 9.75Z" fill="#717171"/>
</svg>
