<svg width="19" height="21" viewBox="0 0 19 21" fill="none" xmlns="http://www.w3.org/2000/svg">
<path d="M17.6671 17.0058C17.5237 18.0991 16.8074 19.0451 15.8044 19.4655C15.313 19.6755 14.7809 19.7388 14.2486 19.6755C13.737 19.6125 13.2251 19.4443 12.693 19.1293C11.956 18.7085 11.2191 18.0571 10.3594 17.09C11.7104 15.3874 12.529 13.8317 12.8362 12.4447C12.9795 11.7929 13 11.2042 12.9386 10.6576C12.8568 10.1322 12.6726 9.64856 12.3859 9.22815C11.7513 8.28232 10.687 7.73569 9.4997 7.73569C8.31242 7.73569 7.24804 8.30332 6.61351 9.22815C6.32681 9.64856 6.14277 10.1322 6.06077 10.6576C5.97897 11.2042 5.99942 11.8139 6.16322 12.4447C6.47016 13.8317 7.30939 15.4084 8.64001 17.1108C7.80078 18.0781 7.04335 18.7297 6.30636 19.1501C5.77428 19.4655 5.26243 19.6338 4.7508 19.6965C4.19806 19.7598 3.66577 19.6755 3.19503 19.4865C2.192 19.0661 1.47567 18.1199 1.33232 17.0268C1.27097 16.5014 1.31187 15.976 1.51657 15.3874C1.57791 15.177 1.68036 14.9672 1.78261 14.7148C1.92596 14.3786 2.08975 14.0209 2.25335 13.6635L2.274 13.6217C3.68622 10.4894 5.20109 7.29428 6.7773 4.18337L6.83865 4.05695C7.00245 3.74195 7.16604 3.40575 7.33004 3.09033C7.49364 2.75391 7.67788 2.4385 7.90303 2.16508C8.33287 1.66045 8.90606 1.38725 9.54059 1.38725C10.1751 1.38725 10.7483 1.66045 11.1782 2.16508C11.4033 2.4385 11.5875 2.75391 11.7513 3.09033C11.9151 3.40575 12.0787 3.74195 12.2425 4.05695L12.3041 4.18337C13.8597 7.31528 15.3745 10.5104 16.7869 13.6427V13.6635C16.9507 13.9999 17.0939 14.3786 17.2577 14.7148C17.3601 14.9672 17.4624 15.177 17.5237 15.3874C17.6875 15.9338 17.7489 16.4596 17.6671 17.0058ZM9.4997 16.0178C8.39442 14.5886 7.67788 13.2431 7.43229 12.1083C7.33004 11.6246 7.30939 11.2042 7.37094 10.8258C7.41184 10.4894 7.53474 10.195 7.69833 9.94256C8.08728 9.37557 8.74226 9.01752 9.4997 9.01752C10.2571 9.01752 10.9326 9.35415 11.3011 9.94256C11.4647 10.195 11.5876 10.4894 11.6284 10.8258C11.6898 11.2042 11.6693 11.6456 11.5671 12.1083C11.3215 13.2223 10.605 14.5676 9.4997 16.0178ZM18.7314 14.9248C18.6292 14.6726 18.5268 14.3993 18.4245 14.1681C18.2607 13.7899 18.0969 13.4323 17.9536 13.0959L17.9331 13.0751C16.5209 9.92177 15.006 6.72665 13.4094 3.57395L13.348 3.44754C13.1842 3.13212 13.0204 2.7957 12.8568 2.4595C12.6519 2.08087 12.4472 1.68187 12.1198 1.30325C11.4647 0.462415 10.5232 0 9.52014 0C8.49667 0 7.57564 0.462415 6.9 1.26146C6.59306 1.63966 6.36791 2.03908 6.16322 2.41771C5.99942 2.75391 5.83562 3.09033 5.67183 3.40575L5.61048 3.53153C4.03446 6.68465 2.49915 9.87998 1.08673 13.0331L1.06628 13.0751C0.922928 13.4113 0.75913 13.7685 0.595333 14.1471C0.493088 14.3786 0.390637 14.6308 0.288392 14.904C0.0221444 15.6816 -0.059652 16.4174 0.0425936 17.174C0.267943 18.7507 1.29142 20.0752 2.70384 20.6636C3.23593 20.895 3.78867 21 4.36186 21C4.52565 21 4.73035 20.979 4.89415 20.9578C5.56958 20.8736 6.26546 20.6428 6.9409 20.2432C7.78033 19.7598 8.57867 19.0661 9.47925 18.0571C10.3798 19.0661 11.1986 19.7598 12.0174 20.2432C12.693 20.6428 13.3889 20.8736 14.0643 20.9578C14.2281 20.979 14.4328 21 14.5966 21C15.1698 21 15.7428 20.895 16.2547 20.6636C17.6875 20.0752 18.6905 18.7297 18.9157 17.174C19.0795 16.4382 18.9975 15.7028 18.7314 14.9248Z" fill="#717171"/>
</svg>
