<svg width="22" height="22" viewBox="0 0 22 22" fill="none" xmlns="http://www.w3.org/2000/svg">
<path fill-rule="evenodd" clip-rule="evenodd" d="M11 22C17.0751 22 22 17.0751 22 11C22 4.92487 17.0751 0 11 0C4.92487 0 0 4.92487 0 11C0 17.0751 4.92487 22 11 22ZM17.1847 18.2113C15.5228 19.6379 13.3621 20.5 11 20.5C8.69614 20.5 6.58383 19.6799 4.93905 18.3157C5.88662 17.0475 7.86109 15.9489 10.3955 15.7742V13.9297C8.6516 13.5785 7.33301 11.9527 7.33301 10C7.33301 7.79086 9.02076 6 11.1027 6C13.1847 6 14.8724 7.79086 14.8724 10C14.8724 11.7728 13.7856 13.2762 12.2804 13.8009V15.818C14.5149 16.0797 16.2703 17.0641 17.1847 18.2113ZM18.2476 17.1421C17.2832 16.0018 15.7798 15.0928 13.9744 14.6159C15.4358 13.6208 16.3724 11.8937 16.3724 10C16.3724 7.04748 14.0956 4.5 11.1027 4.5C8.10977 4.5 5.83301 7.04748 5.83301 10C5.83301 11.8937 6.76957 13.6207 8.23096 14.6159C6.36367 15.1089 4.81635 16.0644 3.85673 17.2631C2.3895 15.591 1.5 13.3994 1.5 11C1.5 5.75329 5.75329 1.5 11 1.5C16.2467 1.5 20.5 5.75329 20.5 11C20.5 13.3419 19.6526 15.4859 18.2476 17.1421Z" fill="#717171"/>
</svg>
