<svg width="22" height="20" viewBox="0 0 22 20" fill="none" xmlns="http://www.w3.org/2000/svg">
<path d="M11.0002 3.66405L10.0143 2.68139C7.70009 0.37473 3.45671 1.17073 1.92491 4.07072C1.20577 5.43471 1.04351 7.40404 2.35668 9.91737C3.62172 12.3374 6.25355 15.236 11.0002 18.3933C15.7468 15.236 18.3773 12.3374 19.6437 9.91737C20.9569 7.40271 20.796 5.43471 20.0755 4.07072C18.5437 1.17073 14.3003 0.373397 11.9861 2.68006L11.0002 3.66405ZM11.0002 20C-10.0833 6.49071 4.50862 -4.05326 10.7582 1.52406C10.8407 1.59739 10.9218 1.67339 11.0002 1.75206C11.0778 1.67346 11.1585 1.59785 11.2422 1.52539C17.4904 -4.05592 32.0837 6.48938 11.0002 20Z" fill="#717171"/>
</svg>
