<svg width="28" height="28" viewBox="0 0 28 28" fill="none" xmlns="http://www.w3.org/2000/svg">
<path fill-rule="evenodd" clip-rule="evenodd" d="M7.95885 5.38626C10.1143 3.05767 13.5083 1.03502 18.2212 2.49172C22.9075 3.94017 24.7931 7.46911 25.4937 10.5511C25.8425 12.0852 25.9038 13.5232 25.8794 14.5737C25.8671 15.1004 25.8333 15.5337 25.802 15.8378C25.7864 15.99 25.7714 16.1101 25.7601 16.1938C25.7544 16.2357 25.7496 16.2685 25.7461 16.2916L25.7419 16.319L25.7406 16.3272L25.7402 16.3298L25.74 16.3308C25.74 16.3312 25.7399 16.3316 24.9999 16.2096C24.8019 16.933 24.8018 16.9329 24.8016 16.9329L24.801 16.9327L24.7983 16.932L24.7877 16.9291L24.7457 16.9176L24.582 16.8727L23.9612 16.7025C23.4263 16.5558 22.6624 16.346 21.7458 16.0939C20.0693 15.6326 17.8819 15.0294 15.6522 14.4106L12.7222 24.9099L12.5206 25.6323L11.0758 25.2291L11.2774 24.5067L14.207 14.0089C12.0459 13.4073 9.939 12.8163 8.31565 12.3516C7.40214 12.0901 6.63839 11.8677 6.10342 11.7056C5.83719 11.6249 5.62099 11.5572 5.46949 11.5061C5.39622 11.4813 5.32485 11.4561 5.26706 11.4325C5.24279 11.4226 5.19443 11.4024 5.14388 11.374C5.12505 11.3634 5.06058 11.3271 4.99315 11.2648C4.96128 11.2354 4.88811 11.1637 4.83034 11.049C4.76707 10.9235 4.69901 10.6915 4.80384 10.4302C4.78864 10.4681 4.83731 10.3443 4.85909 10.2904C4.89443 10.2031 4.94485 10.0819 5.01068 9.93252C5.14225 9.63401 5.33567 9.22227 5.59374 8.74245C6.10819 7.78593 6.88788 6.54326 7.95885 5.38626ZM24.9999 16.2096L25.7399 16.3316L25.6045 17.1527L24.8019 16.933L24.9999 16.2096ZM16.0554 12.9658C17.1687 13.2748 18.2715 13.5799 19.3054 13.8653C19.7752 11.5982 19.9823 10.0068 19.8164 8.64661C19.6671 7.42313 19.2085 6.33914 18.2515 5.09656L16.0554 12.9658ZM22.1437 14.6476C21.7118 14.5288 21.246 14.4005 20.7543 14.265C21.2397 11.9399 21.506 10.1097 21.3054 8.46498C21.1483 7.1773 20.7108 6.03918 19.9413 4.88006C22.4079 6.36483 23.5337 8.69569 24.031 10.8836C24.3448 12.2636 24.4023 13.5718 24.3798 14.5388C24.3736 14.8061 24.3613 15.046 24.3469 15.2529C23.8129 15.1064 23.0535 14.8979 22.1437 14.6476ZM18.5075 4.17897L18.5262 4.18627L18.4992 4.20873L18.5075 4.17897ZM11.8522 6.70518C12.6441 5.34759 13.7942 4.29394 15.6917 3.52219C12.7811 3.31575 10.6136 4.72642 9.05964 6.40521C7.76067 7.80853 6.92463 9.37036 6.50894 10.2611L6.53847 10.2701C7.0619 10.4287 7.81655 10.6485 8.72841 10.9095C9.17068 11.0361 9.64913 11.1722 10.155 11.3153C10.2299 11.069 10.3016 10.8284 10.3723 10.5908L10.3724 10.5906L10.3724 10.5904L10.3725 10.5904L10.3725 10.5903L10.3725 10.5903C10.493 10.1857 10.611 9.78949 10.7381 9.38791C11.0396 8.43579 11.372 7.52835 11.8522 6.70518ZM13.1478 7.46099C13.8107 6.32462 14.8086 5.39659 16.803 4.70644L14.6102 12.5641C13.5778 12.2767 12.5585 11.9919 11.5988 11.7223C11.6772 11.4645 11.7526 11.2118 11.8256 10.9671L11.8257 10.9668C11.9453 10.5661 12.0586 10.1865 12.1681 9.84075C12.4604 8.91788 12.753 8.13782 13.1478 7.46099ZM5.5 25.2081C7.433 25.2081 9 23.6411 9 21.7081C9 19.7751 7.433 18.2081 5.5 18.2081C3.567 18.2081 2 19.7751 2 21.7081C2 23.6411 3.567 25.2081 5.5 25.2081ZM7.5 21.7081C7.5 22.8127 6.60457 23.7081 5.5 23.7081C4.39543 23.7081 3.5 22.8127 3.5 21.7081C3.5 20.6035 4.39543 19.7081 5.5 19.7081C6.60457 19.7081 7.5 20.6035 7.5 21.7081Z" fill="#717171"/>
</svg>
