<svg width="28" height="28" viewBox="0 0 28 28" fill="none" xmlns="http://www.w3.org/2000/svg">
<path fill-rule="evenodd" clip-rule="evenodd" d="M8.83795 10.5C9.00502 9.47153 9.49916 8.35214 10.2646 7.42648C11.2141 6.2783 12.5176 5.5 14.0249 5.5C15.5321 5.5 16.8356 6.2783 17.7851 7.42648C18.5505 8.35214 19.0447 9.47153 19.2118 10.5H8.83795ZM7.32271 10.5C7.4964 9.1104 8.135 7.64801 9.10864 6.47059C10.267 5.06974 11.9635 4 14.0249 4C16.0862 4 17.7827 5.06974 18.9411 6.47059C19.9147 7.64801 20.5533 9.1104 20.727 10.5H20.9366L21.1591 10.7389L24.0859 13.8817L24.5619 14.3929L24.0859 14.904L21.3227 17.8712C21.5076 18.2965 21.6891 18.6793 21.8752 19.0713L21.8778 19.0769L21.8779 19.077C22.0876 19.519 22.3031 19.973 22.527 20.5H24.0249V22H22.0249H21.5167L21.3283 21.528C21.0523 20.8365 20.7909 20.2853 20.52 19.7144L20.5174 19.7088L20.5173 19.7087C20.3076 19.2667 20.0921 18.8127 19.8682 18.2857H14.531V22.25H13.031V18.2857H7.94963L8.12512 18.3635L6.71048 21.554L6.51273 22H6.02486H4.02486V20.5H5.53698L6.55313 18.2082L6.40283 18.0468L3.476 14.904L3 14.3929L3.476 13.8817L6.40283 10.7389L6.62528 10.5H6.95169H7.32271ZM22.5122 14.3929L20.2838 16.7857H13.781H7.27809L5.04971 14.3929L7.27809 12H20.2838L22.5122 14.3929Z" fill="#717171"/>
<circle cx="14.0249" cy="14.25" r="1" fill="#717171"/>
<circle cx="9.0249" cy="14.25" r="1" fill="#717171"/>
<circle cx="19.0249" cy="14.25" r="1" fill="#717171"/>
</svg>
