<svg width="26" height="24" viewBox="0 0 26 24" fill="none" xmlns="http://www.w3.org/2000/svg">
<path fill-rule="evenodd" clip-rule="evenodd" d="M25.0798 1.42383C25.4519 1.24176 25.6059 0.792558 25.4238 0.420505C25.2418 0.048451 24.7926 -0.105562 24.4205 0.0765066L4.50017 9.82476V4.75017H3.00017V10.5588L0.920505 11.5765C0.548451 11.7586 0.394438 12.2078 0.576507 12.5798C0.758575 12.9519 1.20778 13.1059 1.57983 12.9238L3.00017 12.2288V21.7502C3.00017 22.7167 3.78367 23.5002 4.75017 23.5002H21.2502C22.2167 23.5002 23.0002 22.7167 23.0002 21.7502V2.44154L25.0798 1.42383ZM21.5002 3.17558L4.50017 11.4947V21.7502C4.50017 21.8882 4.6121 22.0002 4.75017 22.0002H9.00017V14.2502C9.00017 13.2837 9.78367 12.5002 10.7502 12.5002H15.2502C16.2167 12.5002 17.0002 13.2837 17.0002 14.2502V22.0002H21.2502C21.3882 22.0002 21.5002 21.8882 21.5002 21.7502V3.17558ZM15.5002 22.0002H10.5002V14.2502C10.5002 14.1121 10.6121 14.0002 10.7502 14.0002H15.2502C15.3882 14.0002 15.5002 14.1121 15.5002 14.2502V22.0002ZM19.2502 9.25017C19.8025 9.25017 20.2502 8.80245 20.2502 8.25017C20.2502 7.69788 19.8025 7.25017 19.2502 7.25017C18.6979 7.25017 18.2502 7.69788 18.2502 8.25017C18.2502 8.80245 18.6979 9.25017 19.2502 9.25017Z" fill="#717171"/>
</svg>
