<svg width="32" height="32" viewBox="0 0 32 32" fill="none" xmlns="http://www.w3.org/2000/svg">
<path fill-rule="evenodd" clip-rule="evenodd" d="M6.75 13.0206C6.75 9.55744 9.55744 6.75 13.0206 6.75C16.4837 6.75 19.2912 9.55744 19.2912 13.0206C19.2912 16.4837 16.4837 19.2912 13.0206 19.2912C9.55744 19.2912 6.75 16.4837 6.75 13.0206ZM13.0206 4.75C8.45287 4.75 4.75 8.45287 4.75 13.0206C4.75 17.5883 8.45287 21.2912 13.0206 21.2912C15.0602 21.2912 16.9274 20.5529 18.3695 19.3289L25.4918 26.4512L26.9061 25.037L19.7286 17.8595C20.7118 16.499 21.2912 14.8275 21.2912 13.0206C21.2912 8.45287 17.5883 4.75 13.0206 4.75Z" fill="#717171"/>
</svg>
